<?xml version="1.0" encoding="UTF-8"?> <svg xmlns="http://www.w3.org/2000/svg" viewBox="0 0 471.08 360.95"><defs><style>.cls-1,.cls-29{fill:#c9d2ec;}.cls-1{opacity:0.45;}.cls-2,.cls-32,.cls-39,.cls-40{fill:none;}.cls-2{stroke:#000;stroke-linecap:round;stroke-width:2.19px;}.cls-2,.cls-32,.cls-38,.cls-39,.cls-40{stroke-miterlimit:10;}.cls-3{font-size:27.94px;}.cls-3,.cls-36,.cls-4{fill:#2c1f41;}.cls-14,.cls-3{font-family:RoundedMplus1c-ExtraBold, "Rounded Mplus 1c";}.cls-14,.cls-3,.cls-4{font-weight:800;}.cls-4{font-size:44.59px;font-family:RoundedMplus1c-Black, "Rounded Mplus 1c";}.cls-5{letter-spacing:-0.01em;}.cls-6{letter-spacing:-0.01em;}.cls-10,.cls-11,.cls-12,.cls-38,.cls-7,.cls-8{fill:#fff;}.cls-38,.cls-39,.cls-7{opacity:0.9;}.cls-8{opacity:0.5;}.cls-12,.cls-9{opacity:0.4;}.cls-11{opacity:0.7;}.cls-13,.cls-14{fill:#778fcf;}.cls-14{font-size:24.25px;}.cls-15{letter-spacing:-0.02em;}.cls-16{letter-spacing:-0.01em;}.cls-17{fill:#fdbd84;}.cls-18{fill:#000002;}.cls-19{fill:#85d72e;}.cls-20{fill:#61a017;}.cls-21{fill:#72bb25;}.cls-22{fill:#dd7f31;}.cls-23{fill:#c9aea4;}.cls-24{fill:#4c3e71;}.cls-25{fill:#596b9b;}.cls-26{fill:#edf0f9;}.cls-27{fill:#453432;}.cls-28{fill:#fffaf8;}.cls-30{fill:#d9ced7;}.cls-31{fill:#5d4b48;}.cls-32{stroke:#f8f8f8;stroke-width:1.09px;}.cls-33{fill:#f8f8f8;}.cls-34{fill:#291f4f;}.cls-35{fill:#a5b1ce;}.cls-37{fill:#5e4e74;}.cls-38,.cls-39,.cls-40{stroke:#fff;}</style></defs><g id="objects"><path class="cls-1" d="M424.35,255.88c-9.41-15-22.3-26.88-35.68-37.61-11.21-9-23.59-18.26-28.21-32.61-2.53-7.83-2.46-16.48-5.3-24.17-3.79-10.26-15.52-22.68-25.51-27.16-15.29-6.86-33.77,3.54-49.65-1.81-6.56-2.2-8.3-6.42-12.82-10.85A117.17,117.17,0,0,0,250.94,109c-11-7.45-23.1-13.44-36.17-16-23-4.59-47.57,2-66.57,16.26a103.94,103.94,0,0,0-27.93,32.56c-6.74,12.12-9.73,25.57-16,37.81-11.72,23-36,35.66-47.53,58.74-8.46,17-8.8,37.76-4.35,56.49S65.73,330.64,75,347.1l.13.2H90.52c58.61-.2,311.16-1,317.16.2h11.68c8.51-7.41,16.27-27.89,17.82-40.25C439.45,289.25,433.76,270.84,424.35,255.88Z"></path><polyline class="cls-2" points="80.42 347.5 98.46 347.5 128.8 347.5 141.44 347.5 173.32 347.5 407.68 347.5 419.36 347.5 429.25 347.5"></polyline><line class="cls-2" x1="76.02" y1="347.51" x2="56.47" y2="347.51"></line><line class="cls-2" x1="435.35" y1="347.51" x2="432.07" y2="347.51"></line><text class="cls-3" transform="translate(260.44 101.03)">ONLINE </text><text class="cls-4" transform="translate(271.51 143.48)"><tspan class="cls-5">C</tspan><tspan x="28.81" y="0">OU</tspan><tspan class="cls-6" x="94" y="0">R</tspan><tspan x="123.39" y="0">SE</tspan></text><rect class="cls-7" x="80.42" y="58.75" width="165.24" height="42.73" rx="21.37"></rect><rect class="cls-8" x="39.21" y="191.89" width="165.24" height="42.73" rx="21.37"></rect><rect class="cls-8" x="343.63" y="162.9" width="77.7" height="16.15" rx="8.08"></rect><g class="cls-9"><rect class="cls-10" x="346.91" y="183.46" width="33.28" height="16.15" rx="8.08"></rect><rect class="cls-10" x="384.77" y="183.46" width="33.28" height="16.15" rx="8.08"></rect></g><rect class="cls-11" x="21.23" y="152.11" width="77.3" height="24.31" rx="12.15"></rect><rect x="146.28" y="244.84" width="77.3" height="24.31"></rect><rect class="cls-12" x="57.59" y="244.84" width="77.3" height="24.31" rx="12.15"></rect><rect class="cls-12" x="57.59" y="280.39" width="77.3" height="24.31" rx="12.15"></rect><rect class="cls-13" x="67.68" y="252.72" width="57.12" height="2.5" rx="1.25"></rect><rect class="cls-13" x="67.68" y="258.78" width="57.12" height="2.5" rx="1.25"></rect><rect class="cls-13" x="67.68" y="288.27" width="57.12" height="2.5" rx="1.25"></rect><rect class="cls-13" x="67.68" y="294.33" width="57.12" height="2.5" rx="1.25"></rect><text class="cls-14" transform="translate(69.1 219.46)"><tspan class="cls-15">L</tspan><tspan x="14.33" y="0">e</tspan><tspan class="cls-16" x="28.01" y="0">s</tspan><tspan x="40.67" y="0">son 2</tspan></text><path class="cls-17" d="M301.82,237.14c-2.13,3.34-7.69,7.24-11.64,7.18-13.45-.25-17.87-9.4-19.32-12.74a9.91,9.91,0,0,1,1.06-.16c2.48-.36,5-2.81,5.74-5.57a64.2,64.2,0,0,0,2-15.09l17,9.41c0,1.29-.11,2.7-.24,4.13-.08.86-.17,1.71-.27,2.54s-.2,1.54-.3,2.24a6.09,6.09,0,0,0,2.7,5.92Z"></path><path class="cls-18" d="M303.28,200.54a10.63,10.63,0,0,0,.41,7.54c.65,1.7,2.12.2,3.94.23,2.82.05,5-2.88,6.73-10.66,1.08-5.71,1.36-8.61,1.14-9.16-.78-2-3.34-3-5.46-3.22"></path><path class="cls-17" d="M307.58,183.43c4.44,5.36,6.06,20.43,2.3,30.93-2.67,7.46-5.77,12.28-9.39,12.13-5.5-.24-16.15-4.75-19.62-8.53-6.25-6.79-4.43-20.11-3.14-28.5,1.17-7.62,4.74-17.52,14.31-15.63A27,27,0,0,1,307.58,183.43Z"></path><path class="cls-18" d="M282.33,188.25c1,1.18,2.72,1.44,4.15,1.67a4.69,4.69,0,0,1,3.87,2.72,7,7,0,0,0,2.4,3c.53.28,1.34.32,1.61-.22a1.57,1.57,0,0,1-.55-1.63,3.7,3.7,0,0,1,.88-1.58,5.69,5.69,0,0,1,.54,1.55,2.8,2.8,0,0,0,1.4,1.6.57.57,0,0,0,.33.09.67.67,0,0,0,.37-.27c.7-.84,1.39-2.44,2.36-2.95a5.75,5.75,0,0,0,1.11,2.39,3.39,3.39,0,0,0,1.88,1.49.65.65,0,0,0,.71-.22c.15-.29-.08-.58-.05-.87a1.49,1.49,0,0,1,.3-.62,10.84,10.84,0,0,1,1.15-1.68,27.55,27.55,0,0,0,3.11,3c.24.2.6.4.85.2a.69.69,0,0,0,.19-.46l.41-2.54c.08-.47.36-1.09.82-1a.92.92,0,0,1,.49.48c.15.25,2.88,3.14,2.94,2.91.43-1.63,1.3-3.13,1.72-4.76,2.74-10.54-9.48-19-18.82-19.06a26.68,26.68,0,0,0-6,.87,23.61,23.61,0,0,0-6.33,1.9c-2.73,1.5-4.81,4.22-4.27,7.47"></path><path class="cls-18" d="M286.83,185.46c1.35,1.54,1.71,3.7,1.84,5.74a17.26,17.26,0,0,1-1.49,9c-.41.78-.7,4.63-1.33,4.42-.2-.07-.17-3-.69-4.67-.81-2.49-4.55-3.44-6.24-1.87-2.68,2.52-1.11,5.56-.22,7.46a13.17,13.17,0,0,1,1.52,3.64c.19,1.55.24,7.2-.78,8.52-.84,1.11-1.74-4.23-2.5-5.28-5.66-7.84-11.1-27.78-1.42-32.1,1.47-.66,6-1,7.38-.17"></path><path class="cls-19" d="M322.62,344a14,14,0,0,0,1.71.19,45.79,45.79,0,0,0,9.17-1.11c2.67-.46,3.4-.71,3.34-3.94a307.74,307.74,0,0,0-11-75.71,45.19,45.19,0,0,0-4.13-10.93c-3.38-5.74-11.13-10.7-17.07-13.48-.84-.39-4.31,1.82-5.16,1.43s-1.39-.85-2.13-1.17c-2.19-1-3.65,1-5.47,1.87a7,7,0,0,1-3,.65c-.85,0-1.61-.55-2.39-.15-3.47,1.8-12.1-11.54-12.1-11.54L270.64,234l-10.93,11.45-27.33,37.64s-5,30.86-8.37,51.08c-.59,3.49-2.93,11-3.4,13.67.1-.57,23.33-.73,24.58-.73h47.34c2.65,0,9.79,1.13,11.66-.82,2.29-2.4,4.95-13.39,5.09-16.47.45-10.37-.25-20.65-.39-31.07.05,4.24,1.27,8.07,1.79,12.22.67,5.35,1.63,10.69,2.49,16,.7,4.28,1.36,8.56,1.89,12.86.24,1.93-.06,3.08,1.57,3.84C318,344.34,321,343.73,322.62,344Z"></path><path class="cls-17" d="M313.86,335.16c-1.27-.53-9.08-2.46-12.59-3.19-1.85-.38-10.21-2.55-12.14-2.55s-4.57,2.77-4.57,2.77l.7,9.52c1.86-.19,4.35.78,5.69,1s5.89.21,8.68-1.19c.16-.08.3-.17.45-.26a7.09,7.09,0,0,0,4.1,2s1.22-.13,1.11-.62a25.16,25.16,0,0,0-1.68-2.69c1.19,1.22,3.15,3.2,5.41,3.31,0,0,1.22-.13,1.1-.62a32.74,32.74,0,0,0-2.18-3.44l0,0c1,.87,3.35,3.88,6.14,4,0,0,1.22-.13,1.1-.62a12.54,12.54,0,0,0-1.07-1.78,16.48,16.48,0,0,0,2.65,1.65c3,1.49,4.73.36,4.73,0S315.12,335.68,313.86,335.16Z"></path><path class="cls-20" d="M286.71,324.1a9.43,9.43,0,0,1,4.43,8.61c-.43,5.85-2.19,12.64-9.53,11.93S286.71,324.1,286.71,324.1Z"></path><path class="cls-19" d="M280,344.06c-17.58,6.1-41.1.28-56-9.86-9.34-6.34-15.3-14.38-14.3-22.24,2.6-20.42,18.65-67.21,32.53-74,9.44-4.65,20.89-6.57,27.27-7.34,3-.37,4.86-.46,4.86-.46l-2.31,6.53-11.6,32.69c-.43,19.4-14.31,30.92-11.55,35.44s24.56,9.37,36,17.08C288.1,324,292.12,339.51,280,344.06Z"></path><path class="cls-21" d="M209.71,312.46a15.3,15.3,0,0,0,.06,2.71,12,12,0,0,0,.19,1.34l.32,1.31a18.93,18.93,0,0,0,2.3,4.85,32.66,32.66,0,0,0,7.32,7.84,66.84,66.84,0,0,0,18.92,10.24,80.54,80.54,0,0,0,21.05,4.75,63.06,63.06,0,0,0,10.82.07,48.58,48.58,0,0,0,10.67-2,44.9,44.9,0,0,1-10.61,2.56,63.57,63.57,0,0,1-10.95.27A67.31,67.31,0,0,1,249,344.91a83.92,83.92,0,0,1-10.54-3,74.9,74.9,0,0,1-10-4.53,54.13,54.13,0,0,1-9.1-6.13,32.93,32.93,0,0,1-7.23-8.25A19.16,19.16,0,0,1,210,317.9,14.66,14.66,0,0,1,209.71,312.46Z"></path><path class="cls-21" d="M260.46,269.35a41.43,41.43,0,0,1-1.4,10.95,57.39,57.39,0,0,1-4,10.34c-1.58,3.33-3.6,6.47-5.12,9.74-.7,1.59-1.35,3.47-.2,4.53a16.14,16.14,0,0,0,4.49,2.75c6.63,3,13.68,5.27,20.41,8.31a69.37,69.37,0,0,1,9.77,5.21,9.73,9.73,0,0,1,1.14.86,5.68,5.68,0,0,1,.89,1.13,10.27,10.27,0,0,1,1.07,2.59,20.74,20.74,0,0,1,.69,5.48,23.4,23.4,0,0,0-1-5.39,6.68,6.68,0,0,0-3.12-4.17,70,70,0,0,0-9.82-4.85c-3.4-1.39-6.82-2.71-10.26-4s-6.91-2.54-10.29-4.08a17.1,17.1,0,0,1-4.83-3.06,5.39,5.39,0,0,1-.49-.64,3,3,0,0,1-.31-.79,3.9,3.9,0,0,1-.07-1.59,11.06,11.06,0,0,1,.92-2.76c.79-1.7,1.72-3.3,2.62-4.9s1.82-3.19,2.67-4.8A50.18,50.18,0,0,0,260.46,269.35Z"></path><path class="cls-19" d="M306,239.67c-1.68,1.66-9.15,7-16.26,7a21,21,0,0,1-3.76-.35,21.77,21.77,0,0,1-13.95-9.65,19.13,19.13,0,0,1-1.42-2.62,14.8,14.8,0,0,1-1.13-3.45c3-.37,5.85-1.12,6.32-1.66.51,3.49,4.81,9.79,11.33,11a13,13,0,0,0,2.33.24h0a12.89,12.89,0,0,0,7-1.91l3.14-2.47Z"></path><ellipse class="cls-18" cx="295.92" cy="205.01" rx="1.21" ry="2.38"></ellipse><ellipse class="cls-10" cx="296.44" cy="205.96" rx="0.52" ry="0.73"></ellipse><ellipse class="cls-18" cx="308.91" cy="206.11" rx="1.21" ry="2.38"></ellipse><path class="cls-10" d="M304.78,216.34c0,.5-2.12,3.56-4.16,3.32-1.72-.2-3.22-3.42-2.32-4.88C298.78,214.27,304.79,215.84,304.78,216.34Z"></path><path class="cls-18" d="M292.36,199.19a2.65,2.65,0,0,1,1.61-.57,14,14,0,0,1,1.71-.05,6.4,6.4,0,0,1,3.24.82c.3.18.76-.2.52-.51-.84-1.09-2.64-1.17-3.9-1.15a14.11,14.11,0,0,0-2,.16c-.67.1-1.5.37-1.55,1.17a.19.19,0,0,0,.32.13Z"></path><path class="cls-18" d="M306.94,200.1a9,9,0,0,0,1.37-.11,4.48,4.48,0,0,1,1.36.15,5,5,0,0,1,1.22.51c.2.12.39.26.58.39a1.53,1.53,0,0,0,.64.28.22.22,0,0,0,.22-.22,1.2,1.2,0,0,0-.35-.72,3.14,3.14,0,0,0-.6-.49,4.83,4.83,0,0,0-1.51-.65,5.68,5.68,0,0,0-1.59-.14,2.33,2.33,0,0,0-1.53.55.27.27,0,0,0,.19.45Z"></path><path class="cls-22" d="M303.21,205.08a16.5,16.5,0,0,0,.2,4.15,10.08,10.08,0,0,0,.51,1.94c0,.07.12.49.18.29,0,.09-.22.2-.3.27l-.9.82c-.47.43.24,1.15.7.71l.88-.85a1.33,1.33,0,0,0,.52-.78,2.47,2.47,0,0,0-.29-1,10.57,10.57,0,0,1-.31-1.1,15,15,0,0,1-.34-2.3c-.06-.76-.06-1.52-.16-2.27-.06-.41-.65-.26-.69.1Z"></path><ellipse class="cls-10" cx="309.28" cy="207.05" rx="0.52" ry="0.77"></ellipse><path class="cls-22" d="M288.87,222.06a5.52,5.52,0,0,0,1.59,1.49,13.43,13.43,0,0,0,2,1.21,11.3,11.3,0,0,0,4.41,1.14c.35,0,.44-.57.09-.62a15.71,15.71,0,0,1-4.2-1.17,14.36,14.36,0,0,1-1.83-1c-.6-.42-1.13-1-1.76-1.35a.25.25,0,0,0-.33.34Z"></path><path class="cls-21" d="M274.43,228.92c-1.68-1.24-3.8,0-4.89,1.46a13.06,13.06,0,0,0-2.4,6.14c-.7,4.91.84,9.58,2.78,14s4.1,9,6.33,13.36c1.9,3.77,3.87,7.51,5.41,11.45a54.92,54.92,0,0,1,2.18,6.84c.31,1.22.56,2.45.77,3.69s.13,3,.95,4.08c.2.25.65.36.82,0a4.88,4.88,0,0,0,.07-3c-.17-1.12-.36-2.23-.59-3.34a56.18,56.18,0,0,0-1.55-6A80.64,80.64,0,0,0,280,267.29c-1.87-3.86-3.85-7.66-5.64-11.56-2-4.29-4.21-8.66-5.12-13.33a16.91,16.91,0,0,1,0-7.29,11.1,11.1,0,0,1,1.5-3.48c.57-.85,1.77-2.08,2.85-1.39.84.55,1.55-.75.77-1.32Z"></path><path class="cls-21" d="M299.61,236.16c3.49,1.09,3.5,6.06,3.4,9a54.32,54.32,0,0,1-2,12.73c-2.33,8.39-6.42,16.12-10.65,23.69-2.48,4.45-5.06,8.85-7.51,13.33a.8.8,0,0,0,1.39.81c9.1-16,20.55-32.11,20.67-51.25,0-3.67-.69-8.71-4.89-9.8a.77.77,0,0,0-.41,1.49Z"></path><path class="cls-20" d="M292.38,290.35,279.76,290a1.19,1.19,0,0,0-1.15,1.15c-.79,6.32-1.07,12.76-2,19a1.17,1.17,0,0,0,1.11,1.46c4.14.09,8.29.21,12.44.26a1.15,1.15,0,0,0,.55-.13l0,0a.47.47,0,0,0,.12-.07,1,1,0,0,0,.42-.63c1.6-6.21,1.61-13.16,2.27-19.53A1.17,1.17,0,0,0,292.38,290.35Z"></path><path class="cls-21" d="M309.08,316c0-.66.11-1.3.09-2s-.05-1.44-.07-2.16c-.05-1.38-.08-2.76-.11-4.14q-.08-4,.06-8.09c.17-5.45.56-10.9,1.23-16.31.18-1.52.39-3,.62-4.54.12-.78.25-1.56.38-2.34a19.76,19.76,0,0,0,.34-2.29.51.51,0,0,0-1-.13,26.5,26.5,0,0,0-.74,4.07q-.31,2-.57,4.05c-.36,2.74-.64,5.49-.86,8.24a152.33,152.33,0,0,0-.36,16.55c.05,1.51.12,3,.23,4.53.05.79.11,1.58.19,2.37,0,.35.06.71.12,1.06s.21.74.28,1.12c0,.11.17.08.17,0Z"></path><path class="cls-21" d="M274.06,235.44a7.93,7.93,0,0,0,1.64,3.34,15,15,0,0,0,2.57,2.77,12.64,12.64,0,0,0,6.73,3.16c.45,0,.48-.6.1-.74a19.88,19.88,0,0,1-6.27-3.19,16,16,0,0,1-2.4-2.47c-.75-1-1.25-2.07-2-3a.21.21,0,0,0-.38.16Z"></path><path class="cls-21" d="M289.23,244.71c.77-.16,1.53-.33,2.29-.55l1.11-.31c.2-.06.39-.13.59-.21l.22-.11a.38.38,0,0,0,.14-.14c0,.05,0,0,.06,0a.27.27,0,0,0-.14-.5,1.76,1.76,0,0,0-.33,0l-.25,0a4.92,4.92,0,0,0-.61.15l-1.06.31c-.75.22-1.47.48-2.19.75a.33.33,0,0,0,.17.63Z"></path><path class="cls-22" d="M281.64,201.37s.09-.13.1-.12-.18.07-.15.06-.18,0-.09,0c-.08,0,0,0,0,0l.1,0a1,1,0,0,1,.22.14,2.1,2.1,0,0,1,.6,1.1,4.22,4.22,0,0,1,0,2.12,3.37,3.37,0,0,1-.1.34.66.66,0,0,0-.08.36c0,.16.38.12.48.1a1,1,0,0,0,.61-.27,1.89,1.89,0,0,0,.36-.89,4.9,4.9,0,0,0,.1-.93,3.89,3.89,0,0,0-.4-1.77,1.53,1.53,0,0,0-1.23-.9,1.82,1.82,0,0,0-1.75.78c-.11.22.41.19.49.18.23,0,.58-.13.69-.36Z"></path><path class="cls-22" d="M283,203.05a.79.79,0,0,0,0-.22l0,.06.06-.06a.09.09,0,0,0,0-.13,1.48,1.48,0,0,0-.56-.43,1.21,1.21,0,0,0-.37-.11,1.31,1.31,0,0,0-.62.1s-.23.1-.14.16l.05.05s.11,0,.16.06.22.06.33.11l0,0s0,0,0,0l.07.05.14.1.12.11s0,.05.06.06a.36.36,0,0,0,.27,0l-.14,0,.22.15a.2.2,0,0,0,.17,0s.14,0,.14-.09Z"></path><path class="cls-22" d="M298.09,220.15a1.92,1.92,0,0,0,1,.73,2,2,0,0,0,.73.07l.14,0,.2-.05c-.08,0-.12,0,0,0l.11,0a.79.79,0,0,0,.27-.15s0-.06,0-.06h-.29l.12,0a.57.57,0,0,0-.18,0H300s0,0,0,0a3.36,3.36,0,0,1-.45-.14,1.72,1.72,0,0,1-.69-.59s-.16,0-.2,0a.78.78,0,0,0-.3.07c-.1,0-.31.13-.23.25Z"></path><path class="cls-22" d="M293.19,206.2a2.51,2.51,0,0,0,0,.27v.14a.9.9,0,0,0,0,.16,1.17,1.17,0,0,0,.1.55,2.32,2.32,0,0,0,.67.88,1.65,1.65,0,0,0,.25.15,1.26,1.26,0,0,0,.33.1.47.47,0,0,0,.38-.12c0-.09-.09-.18-.15-.24s-.27-.23-.39-.36a2.36,2.36,0,0,1-.32-.44,5.86,5.86,0,0,1-.26-.57,1.23,1.23,0,0,1-.13-.29,1.81,1.81,0,0,1-.05-.31c0-.1-.35,0-.36.08Z"></path><path class="cls-22" d="M309.18,209.49c.06,0,.2-.09.07-.09s-.2.09-.07.09Z"></path><path class="cls-22" d="M310,209.35a1.54,1.54,0,0,0,.68-.63,1,1,0,0,0,.11-.38.49.49,0,0,0,0-.21.42.42,0,0,0-.14-.18.19.19,0,0,0-.2,0,1,1,0,0,0-.1.21l0,.1s0,.07,0,.1a2.39,2.39,0,0,1-.15.37,1.32,1.32,0,0,1-.21.29l0,0h0l-.08.05s0,0,0,0h0l-.09,0c-.07,0-.19.15-.07.19a.61.61,0,0,0,.42-.07Z"></path><path class="cls-21" d="M309.3,289.36a14.7,14.7,0,0,1,.26-2,8.33,8.33,0,0,1,.69-1.73,21.71,21.71,0,0,1,2-3.11,20.83,20.83,0,0,1,2.36-2.61c.44-.39.89-.77,1.37-1.12s1-.55,1.16-1a.28.28,0,0,0-.2-.35c-.55-.1-1.12.37-1.56.67a15.57,15.57,0,0,0-1.5,1.21,21,21,0,0,0-2.53,2.89,19.06,19.06,0,0,0-2.14,3.47,4.56,4.56,0,0,0-.34,3.79c.11.23.4.09.42-.11Z"></path><path class="cls-21" d="M308.94,291.05a4.36,4.36,0,0,0,.83-1.2c.26-.45.52-.91.81-1.34a19.5,19.5,0,0,1,1.92-2.5c.35-.39.72-.76,1.1-1.12a3.54,3.54,0,0,1,1.32-1,.51.51,0,0,1,.53.11c.14.2-.08.46-.18.63a2.43,2.43,0,0,1-1.17,1.09,5.48,5.48,0,0,0-1.52.68c-.38.31-.73.81-.47,1.3a.31.31,0,0,0,.49.06c.14-.19.21-.41.36-.59a1.87,1.87,0,0,1,.8-.5,4,4,0,0,0,1.55-.84c.66-.64,1.58-2,.35-2.64s-2.14.66-2.85,1.34a19.2,19.2,0,0,0-2.36,2.81,15,15,0,0,0-1.07,1.76,4.08,4.08,0,0,0-.63,1.87.11.11,0,0,0,.19.07Z"></path><path class="cls-21" d="M282.47,326.13c-.11,1.11,0,2.23-.12,3.34a13.78,13.78,0,0,1-.77,3.36,14.29,14.29,0,0,1-1.55,3c-.63.94-1.4,1.76-2,2.72-.12.18.1.34.27.27a6.64,6.64,0,0,0,2.6-2.39,13.06,13.06,0,0,0,1.68-3.31,13.44,13.44,0,0,0,.74-3.55,7.08,7.08,0,0,0-.44-3.53c-.1-.22-.39-.08-.41.11Z"></path><path class="cls-21" d="M300,304.94c-.23,1.35-.37,2.71-.7,4a20.81,20.81,0,0,1-1.36,3.91,23.21,23.21,0,0,1-4.72,6.75,22.78,22.78,0,0,1-3.7,3,.28.28,0,0,0,.27.48A21.5,21.5,0,0,0,300,309.89a14.06,14.06,0,0,0,.61-4.86c0-.34-.57-.48-.64-.09Z"></path><path class="cls-21" d="M320.06,214.73c.37-.14.73-.28,1.09-.45.16-.09.33-.16.49-.27l.21-.13a.55.55,0,0,0,.27-.43l-.11.26.18-.16a.49.49,0,0,0,.14-.24.2.2,0,0,0-.14-.25.57.57,0,0,0-.29,0l-.24.06.28,0c-.24-.14-.47,0-.69.07a5.52,5.52,0,0,0-.55.26c-.32.17-.62.37-.93.57a.37.37,0,0,0-.15.47.36.36,0,0,0,.44.22Z"></path><path class="cls-21" d="M320.12,216.71a1.7,1.7,0,0,0,.43.26c.12.05.26.09.39.13a1.69,1.69,0,0,0,.5,0,2.85,2.85,0,0,0,.29,0,.74.74,0,0,0,.25-.17.29.29,0,0,0,.09-.25.32.32,0,0,0-.14-.21l0,0,0,0a.45.45,0,0,0-.21-.12l-.17,0-.2-.05-.18,0-.37-.11-.36-.12a.35.35,0,0,0-.3,0,.39.39,0,0,0-.17.19.39.39,0,0,0,0,.26.48.48,0,0,0,.19.23Z"></path><path class="cls-21" d="M319.41,220.49l.39.24a3.11,3.11,0,0,0,.41.2,1.43,1.43,0,0,0,.28.13l.19.05c.18,0,.44.12.56-.08s-.09-.39-.22-.51l-.2-.17-.2-.11c-.14-.07-.27-.16-.41-.22l-.42-.18a.41.41,0,0,0-.29,0,.37.37,0,0,0-.09.68Z"></path><path class="cls-23" d="M238.65,333.29c3.4-.41,9.42-1.32,9.58-3.41-2.2-1.43-4.63-2.86-7.25-3a13.35,13.35,0,0,0-6,1.51q-2.44,1.1-4.78,2.37c-.64.35-2.32,1.6-2.34,2.47,0,1.09,1.95.45,2.74.5A42.72,42.72,0,0,0,238.65,333.29Z"></path><path class="cls-17" d="M230.62,331.52s4.52,14.8,6.91,15.16,25.81.53,26.43.27a1.13,1.13,0,0,0,.71-.71s14.89,1,15.16.62,0-2.13-.71-2.4-23.23-5.32-25.18-6-8.07-.53-8.07-.53l-1.24-8.6Z"></path><path class="cls-24" d="M236.08,145.71a8.13,8.13,0,0,1,2.15,5.9,15.06,15.06,0,0,1-.81,3.74c-.75,2.35-1.62,4.79-3.45,6.45a1.34,1.34,0,0,1-1.07.45l-2.2-6.78a24.73,24.73,0,0,1-.9-3.3,11.3,11.3,0,0,1,.42-5.71,4.72,4.72,0,0,1,1.41-2.18C233.34,143,234.92,144.47,236.08,145.71Z"></path><path class="cls-25" d="M192.63,271a15.79,15.79,0,0,0,0,2.75c.05,1.23.12,2.47.19,3.71a34.58,34.58,0,0,1,.09,6.67.37.37,0,0,0,.27.36l-.09,0a.15.15,0,0,0,.27,0l-.08,0a.38.38,0,0,0,.36-.28,33.89,33.89,0,0,0,.11-6.68c-.08-2.18-.17-4.37-.26-6.55a.44.44,0,0,0-.87,0Z"></path><path class="cls-25" d="M199.27,266.4a33.87,33.87,0,0,0-1.34,3.82c-.49,1.52-1,3-1.61,4.49a47.63,47.63,0,0,1-2,4.44c-.69,1.29-1.59,2.46-2.29,3.74-.17.31.28.71.52.4a21.27,21.27,0,0,0,2.08-3.81c.71-1.47,1.44-2.94,2.08-4.44s1.17-2.83,1.7-4.27a18.27,18.27,0,0,0,1.19-4.28.19.19,0,0,0-.35-.09Z"></path><path class="cls-24" d="M145.18,347.51l1.52-51.16,11.12,51.16h31.89c-2.12-17-11.52-88.16-21.35-94.19l-38.59-24s-22.34,5.83-21.85,38.11c1.78,31.1,5.59,67.69,6.93,80.11Z"></path><path class="cls-26" d="M248.14,329.93c-.83,1.25-5,.31-6.29.43a21.75,21.75,0,0,0-3.25.81c-3.45.9-7.31.43-10.41,2.19a.45.45,0,0,1-.31.08.42.42,0,0,1-.22-.28c-2-5.49-3.53-11.21-5.26-16.8l-7.82-25.2-4-13-9.47-43.87,4.21-30.93,1-7.3.07-.55.59.2a85.88,85.88,0,0,1,8.45,3.56c6,2.94,13,7.34,13.9,12.32v.05c.5,3.49,1.06,7,1.61,10.46q1.46,9.27,3,18.53,1.84,11.53,3.7,23.06l3.87,24q1.74,10.71,3.47,21.44,1.24,7.64,2.48,15.29c.23,1.41.46,2.82.68,4.23,0,.25.26.82.18,1.07A1.24,1.24,0,0,1,248.14,329.93Z"></path><path class="cls-26" d="M206.35,195.49l-.07.55-1,7.3-4.21,30.93L180.47,247c-1.07.66-2,5.22-2.44,6.36-1.42,3.71-2.66,7.56-4.29,11.18-.33.74-.63,2.77-1.37,3.22-1.48.91-7.52-.34-9.39-.46-6.9-.44-13.88-1.46-20.19-4.43-5-2.36-9.42-5.68-14.12-8.54-2.87-1.75-6.07-2.84-9.11-4.24-2-.94-6.42-2.73-7.2-5.12a2.85,2.85,0,0,1,.46-2.07c1.45-2.81,2.41-6.19,4.13-8.8,1.58-2.41,3.52-4.58,5.06-7,3.1-5,5.84-10.2,9.71-14.62,6.6-7.53,12.13-16.14,18.92-23.65,3-3.33,12.41-6.51,16.91-6.69a37.34,37.34,0,0,1,11.51,1.47,52.6,52.6,0,0,1,7.22,2.64,41.89,41.89,0,0,1,4.6,2.4Z"></path><path class="cls-17" d="M214,236.63c2.17-1.33,12.3-7.8,13.21-10.14.42-1.09,2.72-4.43,4.71-7.56a63.62,63.62,0,0,1,4.91-6.27c1.28-1.34,3.15-4.65,4.27-3.56,1.4,1.35-.79,4.75-2,6.83a8.62,8.62,0,0,0-1.13,2.4,2.5,2.5,0,0,0,.35,2.24c.28.4,2.17.59,2.81.56,4.79-.21,6.86.07,10.44-1.26a88.39,88.39,0,0,0,10.27-5,4.27,4.27,0,0,1,2.23-1c.65-.06,2,0,2,.68s-4.08,3.65-4.49,3.94l-4.21,3a1.72,1.72,0,0,0-.8.95,5.47,5.47,0,0,0,.08,1.06,2.48,2.48,0,0,1-.86,1.65,27.77,27.77,0,0,1-2.42,2.31c-1.18,1-.22,1.88-1.51,2.77s-5.11,2-6.57,2.91a22.39,22.39,0,0,1-3.62,2,27.35,27.35,0,0,1-4.81,1.22c-4.44.92-12.21,9-16,11.62"></path><path class="cls-17" d="M239.46,235.71a39.16,39.16,0,0,0,10-2.77c4.45-2.06,15.42-8.83,15.42-8.83a1,1,0,0,0,0-.66c-.11-.27-1.78-.64-3.12,0l-9.94,4.31"></path><path class="cls-17" d="M238.36,233.84a66.33,66.33,0,0,0,11.51-3.54c4.44-2.07,15.41-8.84,15.41-8.84a1,1,0,0,0,0-.65c-.12-.27-1.79-.64-3.13-.06l-9.94,4.32"></path><path class="cls-17" d="M240.59,229.77a65.38,65.38,0,0,0,11.51-3.54A126.35,126.35,0,0,0,267.34,218c.26-.17.33-1,.21-1.23s-1.78-.64-3.13-.05L254.48,221"></path><path class="cls-17" d="M214.36,187.42s17.12,10.43,21.12-10.69c1-8.73,2.19-22.93-5.1-28.49s-24-6.19-24.39,10.29c.64,4.73.45,5.1.45,5.1s-6.28-1.73-4.91,6.1a13.39,13.39,0,0,0,1.67,4.82l-12.87,10.07c-1.18.93-2.17,2.47-3.81,1.73a2.63,2.63,0,0,0-.55-.22.49.49,0,0,0-.51.2.76.76,0,0,0-.06.37,7.87,7.87,0,0,1-.44,1.83,8.09,8.09,0,0,0,1.25,6.5,11.64,11.64,0,0,0,4.26,4.13,17.5,17.5,0,0,0,5.43,1.78,16.29,16.29,0,0,0,7.22-.06,6.08,6.08,0,0,0,3.42-2,3.68,3.68,0,0,0,.49-.7,4.13,4.13,0,0,0,.29-1.91.38.38,0,0,0-.06-.26.4.4,0,0,0-.26-.1c-1-.18-.36-.73.08-1.18l1.31-1.35c.92-.94,1.85-1.87,2.78-2.8S213.29,188.46,214.36,187.42Z"></path><ellipse class="cls-18" cx="227.11" cy="167.6" rx="1.21" ry="2.38"></ellipse><path class="cls-27" d="M230,159.38a1.73,1.73,0,0,0-1.19-.43,7.5,7.5,0,0,0-1.25-.08,10.49,10.49,0,0,0-2.61.38,10.69,10.69,0,0,0-2.38,1,10.31,10.31,0,0,0-1,.71,1.46,1.46,0,0,0-.71,1c0,.2.18.34.36.35a1.62,1.62,0,0,0,1-.37,11.37,11.37,0,0,1,1-.55,10.92,10.92,0,0,1,2.15-.81,10.62,10.62,0,0,1,2.18-.32c.39,0,.78,0,1.17,0a2,2,0,0,0,1.18-.12.46.46,0,0,0,.09-.71Z"></path><path class="cls-17" d="M236.12,165.42a6,6,0,0,0,.51,3.94,17.53,17.53,0,0,0,2.09,3.37l1.05,1.45a20.86,20.86,0,0,0-3.2,1.35c-.62.32-1.29.75-1.41,1.44"></path><path class="cls-28" d="M228.24,178.25a5.29,5.29,0,0,0,2.3.24c.08,0,.17,0,.22,0a.24.24,0,0,1,.05.14,4.65,4.65,0,0,1-.6,2.19,5.19,5.19,0,0,1-.77,1.33,3.15,3.15,0,0,1-3.32.83,2.7,2.7,0,0,1-1.05-1.07,5.42,5.42,0,0,1-.6-4.5c.4-.89.5-.56,1.29-.2s1.47.59,2.21.89Z"></path><path class="cls-26" d="M215,232.93c-12.49,5.8-31.92,16.26-31.92,16.26l-2.79-20.14-29.37.24s8.49,46.85,15.05,51.22c0,0,7.76,5.82,20.39-2.92,8.33-5.76,27.71-20.93,37.23-29.22Z"></path><path class="cls-29" d="M159.82,266.89a11,11,0,0,0-.81-3.66q-.6-2.16-1.17-4.32c-.85-3.22-1.71-6.45-2.53-9.68-1.72-6.72-3.31-13.47-4.83-20.23-.7-3.12-1.22-6.29-2-9.39a.26.26,0,0,0-.51.07,61.17,61.17,0,0,0,1.19,8.17q.92,5,2.06,9.94c1.56,6.84,3.3,13.66,5.27,20.39.48,1.62,1,3.24,1.46,4.86.39,1.26.66,3,1.52,4,.13.16.34,0,.35-.14Z"></path><path class="cls-29" d="M222.8,247.24a27.72,27.72,0,0,0-4.34,3.22c-1.45,1.17-2.86,2.37-4.25,3.6q-4.16,3.7-8,7.77c-.53.56.32,1.42.85.85,2.51-2.66,5.14-5.22,7.88-7.65,1.35-1.2,2.73-2.36,4.13-3.5a50.31,50.31,0,0,0,4.33-3.48.52.52,0,0,0-.63-.81Z"></path><path class="cls-29" d="M202.38,239.49a9.06,9.06,0,0,0,2.91-.83c1-.39,1.92-.8,2.86-1.26s1.81-.9,2.69-1.39l1.4-.8a1.73,1.73,0,0,0,.9-1.08.41.41,0,0,0-.28-.5,1.67,1.67,0,0,0-1.29.24l-1.31.77c-.88.5-1.77,1-2.67,1.43s-1.82.89-2.74,1.3a13.78,13.78,0,0,0-2.68,1.36c-.29.22-.24.78.21.76Z"></path><path class="cls-25" d="M185.86,185.87c-.66-1.33-2.23-.88-3.1,0a10.33,10.33,0,0,0-2.55,4.76c-1,3.95-.56,8.28.33,12.21,1,4.46,2.86,8.55,4.61,12.75a78.39,78.39,0,0,1,3.77,13,64.47,64.47,0,0,1,1.6,16c0,.55.79.53.84,0a46.19,46.19,0,0,0-.8-12.19c-.71-4.12-1.74-8.18-2.85-12.2-1-3.77-2.87-7.24-4.27-10.88a42.1,42.1,0,0,1-2.89-12.2,19.81,19.81,0,0,1,.45-6.24,11.29,11.29,0,0,1,1.15-2.84c.41-.69,2.22-3.27,3-1.69.23.47.92.06.69-.41Z"></path><path class="cls-25" d="M208.25,194.36l-.07-.1-.06.46.08-.1-.48.06c3.41,1.87,2.59,6.82,2,10-.68,3.63-1.14,7.29-1.72,10.93a139.91,139.91,0,0,1-5.4,22.84c-.15.44.55.63.71.19a119.57,119.57,0,0,0,4.93-19.37c.58-3.25,1.08-6.51,1.56-9.77.42-2.84,1.14-5.67,1.37-8.54.18-2.34-.19-6.47-3.15-7a.41.41,0,0,0-.49.28l0,.12a.38.38,0,0,0,.18.42l.09.08c.3.21.66-.2.49-.49Z"></path><path class="cls-30" d="M200.13,280.23a1.16,1.16,0,0,0-1.15-1.15l-12.59.85a1.18,1.18,0,0,0-1.16,1.15c-.18,6.46.17,13-.18,19.45a1.17,1.17,0,0,0,1.15,1.16c4.14-.32,8.28-.59,12.41-.95l.1,0a.92.92,0,0,0,1-.83C200.72,293.55,200.08,286.65,200.13,280.23Z"></path><path class="cls-31" d="M201,167c-.68,0-1.33.26-2,.3a2.61,2.61,0,0,1-1.91-.53,9.8,9.8,0,0,1-1.25-1.48,2.2,2.2,0,0,0-1.43-1.05c-.17,0-.21.19-.13.3s.48.48.71.72a10.44,10.44,0,0,1,.66.83,5,5,0,0,0,1.43,1.48,4.12,4.12,0,0,0,4-.23c.14-.09.1-.35-.09-.34Z"></path><circle class="cls-32" cx="226.8" cy="167.81" r="5.83"></circle><path class="cls-33" d="M233.06,166.26a1.84,1.84,0,0,1,1.39-.79,1.65,1.65,0,0,1,.77.06.38.38,0,0,1,.13.06.24.24,0,0,1,.09.06c.06,0,0,0,0,0l.06.06,0,0,.1.18c.17.32.75.19.71-.19-.1-.86-1.14-1.12-1.87-1a2.4,2.4,0,0,0-2,1.22.34.34,0,0,0,.11.45.32.32,0,0,0,.45-.12Z"></path><path class="cls-24" d="M200.85,157.37c3,2.15,21.57-.48,27.58-3.23,12.2-5.6,13.4-15.46,10.55-17.31a2.81,2.81,0,0,0-1.14-.45,3.93,3.93,0,0,0-2.61,1.05c.3-1.12,1.41-6-1.55-7.9-4-2.59-9,1.79-9.8,2.33-5.68,3.8-8.74,4.45-8.74,4.45s1-9.58-6.85-2.22c-2.47,2.31-7,4.48-9.51,6.8s-4.05,6.43-2.56,9.84"></path><path class="cls-24" d="M209.57,151.57c1.7,1.39,2.46,3.6,3,5.74a18.38,18.38,0,0,1,0,9.79c-.29.89.07,5-.63,4.9-.22,0-.71-3.2-1.54-4.81-1.3-2.49-5.42-2.84-6.92-.88-1.86,2.42-.66,4.13.16,6.55a3.48,3.48,0,0,1-2.19,4.67c-2,.58-1.45-1-2.27-2.42-1.75-3.13-3.59-5.86-4.77-9.34-1.86-5.49-3.39-13.82,2.35-17.63,1.44-.95,6.18-2.11,7.78-1.46"></path><ellipse class="cls-10" cx="227.53" cy="168.66" rx="0.52" ry="0.68"></ellipse><path class="cls-33" d="M208.05,163.8c.72,2,3.27,2.33,5.07,2.76,1.2.29,2.42.51,3.64.68.57.08,1.14.15,1.72.2a6.87,6.87,0,0,0,1.92.06c.51-.1.44-.83,0-1a8.68,8.68,0,0,0-1.7-.2c-.55-.05-1.09-.11-1.64-.19-1.07-.15-2.15-.34-3.21-.57s-2-.48-3-.79a4.68,4.68,0,0,1-2.24-1.29c-.19-.24-.61,0-.51.3Z"></path><path class="cls-22" d="M210.84,183.24a8.64,8.64,0,0,0,.77,1.31,14,14,0,0,0,1,1.19,9.19,9.19,0,0,0,1.11,1,4.05,4.05,0,0,0,1.26.79c.08,0,.17-.08.11-.15a5.44,5.44,0,0,0-.47-.49c-.17-.18-.36-.34-.54-.51-.36-.34-.72-.69-1.06-1.05s-.65-.72-1-1.1-.65-.79-1-1.2a.16.16,0,0,0-.27.16Z"></path><path class="cls-27" d="M245.81,162.77c.43-.27.86-.55,1.28-.84.21-.15.43-.3.63-.47a3.47,3.47,0,0,0,.25-.29,2,2,0,0,0,.22-.29.12.12,0,0,0-.13-.18,2.35,2.35,0,0,0-.35.11,2.5,2.5,0,0,0-.38.15c-.21.12-.41.26-.61.4-.41.29-.81.59-1.21.9a.3.3,0,0,0-.1.4.3.3,0,0,0,.4.11Z"></path><path class="cls-27" d="M247,165.12c.33-.06.65-.16,1-.25a4.42,4.42,0,0,0,.48-.15,1.53,1.53,0,0,0,.27-.11l.22-.13a.31.31,0,0,0-.15-.57h-.26a1.35,1.35,0,0,0-.29.05c-.17,0-.33.07-.49.12-.32.09-.64.17-.95.29a.41.41,0,0,0-.28.48.4.4,0,0,0,.48.27Z"></path><path class="cls-27" d="M247.22,168a6.77,6.77,0,0,1,.87-.19l.2,0h.18l.2,0a1.67,1.67,0,0,0,.32-.08l-.16,0a3.16,3.16,0,0,0,.32,0,.67.67,0,0,0,.26-.09.18.18,0,0,0,0-.27.67.67,0,0,0-.27-.16,1.86,1.86,0,0,0-.34-.06l.16,0a2,2,0,0,0-1.08-.05,3.73,3.73,0,0,0-.46.09,2.34,2.34,0,0,0-.5.19.34.34,0,0,0-.14.44.36.36,0,0,0,.41.21Z"></path><path class="cls-34" d="M124.14,253c-.73-.2-1.21.39-1.45,1a12.52,12.52,0,0,0-.47,2.79,12.19,12.19,0,0,0-.21,2.62c.06.72.28,1.77,1,2.11.24.11.63,0,.6-.35a1.48,1.48,0,0,1,0-.21.23.23,0,0,0-.3-.23.65.65,0,0,1-.2.05l.46.19a9.16,9.16,0,0,1-.46-.8,3.33,3.33,0,0,1-.18-.93,11.22,11.22,0,0,1,.17-2.17c.1-.79.15-1.6.32-2.38a2.19,2.19,0,0,1,.77-1.35.2.2,0,0,0,0-.37Z"></path><path class="cls-34" d="M126,254.32a6.29,6.29,0,0,0-.87,3.28,11.78,11.78,0,0,0,0,1.68,6.59,6.59,0,0,0,.26,1.77.42.42,0,0,0,.39.29.38.38,0,0,0,.39-.39c0-.56-.17-1.11-.21-1.67a12.51,12.51,0,0,1,0-1.62,11.18,11.18,0,0,1,.21-1.63,8.69,8.69,0,0,0,.24-1.61.21.21,0,0,0-.38-.1Z"></path><path class="cls-34" d="M158.75,268.41a18.35,18.35,0,0,1-.76,2,8.54,8.54,0,0,1-.51.94c-.19.31-.56.69-.49,1.08a.35.35,0,0,0,.33.25.74.74,0,0,0,.54-.38,5.29,5.29,0,0,0,.32-.5,10.32,10.32,0,0,0,.53-1.05,6.54,6.54,0,0,0,.57-2.3.27.27,0,0,0-.53-.07Z"></path><path class="cls-34" d="M160.23,270.78c0,.19-.12.37-.18.56s-.13.34-.21.51-.17.34-.27.51-.09.17-.14.26a1,1,0,0,0-.16.33.4.4,0,0,0,.13.4.38.38,0,0,0,.43,0,1.54,1.54,0,0,0,.43-.6,5.12,5.12,0,0,0,.25-.65,5.06,5.06,0,0,0,.23-1.28.26.26,0,0,0-.51-.07Z"></path><path class="cls-34" d="M109.84,253a6.78,6.78,0,0,0,1.48.79c.51.23,1,.49,1.49.77,1,.6,2,1.27,3.07,1.92,1.85,1.19,4,2.6,6.29,2.74.39,0,.47-.58.09-.68a16.11,16.11,0,0,1-3.31-1.11,33.89,33.89,0,0,1-3-1.74c-1-.63-1.94-1.26-3-1.81a6,6,0,0,0-3.11-1.08c-.09,0-.17.13-.08.2Z"></path><path class="cls-34" d="M125.75,259.58c2,1.08,4.1,2.13,6.09,3.3s3.95,2.36,6,3.48a43.55,43.55,0,0,0,6,2.85,39.08,39.08,0,0,0,6.39,1.7q1.8.33,3.63.54c.63.08,1.27.14,1.91.2a4.69,4.69,0,0,0,1.79,0c.23-.07.33-.44.08-.56a3.85,3.85,0,0,0-1.35-.25c-.58,0-1.16-.1-1.73-.16-1.11-.12-2.22-.27-3.31-.45a41.87,41.87,0,0,1-6.45-1.58c-4.29-1.46-8.16-3.93-12.07-6.18a43.93,43.93,0,0,0-6.74-3.41.29.29,0,0,0-.22.52Z"></path><path class="cls-34" d="M149.87,297.4a26,26,0,0,1,3.25-3.22,17.11,17.11,0,0,1,1.86-1.29c.34-.2,1.39-.95,1.76-.46a.14.14,0,0,0,.27-.07c0-.72-.9-.72-1.41-.54a10.13,10.13,0,0,0-2.27,1.38,12.81,12.81,0,0,0-3.71,4c-.08.15.13.33.25.19Z"></path><path class="cls-34" d="M143.56,296.58a15.37,15.37,0,0,0-4.51-3.2,15.94,15.94,0,0,0-2.5-.92,8.93,8.93,0,0,0-2.76-.38.11.11,0,0,0,0,.22c.81.26,1.67.42,2.49.67a18.15,18.15,0,0,1,7,4,.25.25,0,0,0,.35-.35Z"></path><path class="cls-34" d="M149.58,299.12a10.9,10.9,0,0,1,4.12,2.37,8.11,8.11,0,0,1,2.22,4.15l.58-.45a7.94,7.94,0,0,1-2.78-2.86c-.3-.49-.65-1.1-1.25-1.24a1.56,1.56,0,0,0-1.43.17s0,.11.06.08a1,1,0,0,1,1,.05,4.08,4.08,0,0,1,.54.63c.34.45.6,1,.93,1.41a9.73,9.73,0,0,0,1.06,1.25c.42.42.9.75,1.36,1.13a.4.4,0,0,0,.66-.38,8.38,8.38,0,0,0-2.46-4.54,7,7,0,0,0-4.58-2.21.23.23,0,0,0-.06.44Z"></path><path class="cls-34" d="M109.53,274.64c3.24-2,6.3-4.49,8-7.94.26-.52-.52-1-.78-.46-1.66,3.32-4.58,5.72-7.7,7.62-.49.3,0,1.09.46.78Z"></path><path class="cls-34" d="M148.3,270.8c.13,1.71.37,3.43.49,5.15a50.81,50.81,0,0,1,.13,5.09,52.59,52.59,0,0,1-1.29,10.3c-.1.4.52.57.61.17a52.57,52.57,0,0,0,1.32-10.37,36.25,36.25,0,0,0-.92-10.39c0-.18-.36-.15-.34.05Z"></path><path class="cls-34" d="M147.76,292.73c-.27.18-.3.57-.36.86s-.14.6-.2.91-.11.61-.16.91-.06.32-.08.48a.83.83,0,0,0,.12.46.14.14,0,0,0,.23,0,1,1,0,0,0,.24-.35c0-.14,0-.31.07-.46,0-.31.1-.63.16-.95s.11-.61.18-.91.2-.65,0-.92a.18.18,0,0,0-.25-.06Z"></path><path class="cls-34" d="M153,271.16c-.16,2,0,4.11,0,6.15l.06,6.14c0,1.81.18,3.73-.6,5.42a16,16,0,0,1-2.58,3.55,13.31,13.31,0,0,0-2.69,3.95c-.12.29.38.5.51.21,1.19-2.78,3.95-4.4,5.31-7.07a10.37,10.37,0,0,0,.83-5.05c0-2.08-.07-4.17-.1-6.25l-.06-3.42c0-1.21,0-2.43-.12-3.63a.28.28,0,0,0-.56,0Z"></path><path class="cls-35" d="M183.15,194.54a5.85,5.85,0,0,0,.68,3.21,8.36,8.36,0,0,0,2.14,2.59,12.37,12.37,0,0,0,3.15,1.82,17.42,17.42,0,0,0,1.84.64,6.23,6.23,0,0,0,1.86.34.36.36,0,0,0,.18-.67,28.1,28.1,0,0,0-3.18-1,11.85,11.85,0,0,1-3.09-1.62,7.89,7.89,0,0,1-3.2-5.28.19.19,0,0,0-.38,0Z"></path><path class="cls-35" d="M195.6,203.09a5.23,5.23,0,0,0,.57.12,4.07,4.07,0,0,0,.49,0l1.12,0a4.12,4.12,0,0,0,2.12-.27.21.21,0,0,0,0-.36,4.12,4.12,0,0,0-2.12-.27l-1.08,0a3.17,3.17,0,0,0-.53,0,5.23,5.23,0,0,0-.57.12.27.27,0,0,0,0,.52Z"></path><path class="cls-35" d="M148.05,221a10.1,10.1,0,0,0-.22-1.32,3.88,3.88,0,0,0-.55-1.25,5.39,5.39,0,0,0-2-1.89,6,6,0,0,0-.63-.3,1.5,1.5,0,0,0-.8-.16c-.23.06-.45.25-.37.51s.41.38.67.46a5.3,5.3,0,0,1,2.18,1.39,5.44,5.44,0,0,1,.85,1.18,3.44,3.44,0,0,1,.37.68,3.18,3.18,0,0,1,.19.75c0,.18.34.14.33-.05Z"></path><path class="cls-22" d="M209.24,171.69a2.51,2.51,0,0,0-.06-1.77,6.11,6.11,0,0,0-.73-1.6,3.68,3.68,0,0,0-1.12-1.23,1.66,1.66,0,0,0-.84-.23,2.49,2.49,0,0,0-.71.14c-.14.05-.51.19-.52.38s.38.21.54.19l.4-.11-.23.06h-.18c.05,0,.17,0,.24.07a1.75,1.75,0,0,1,.48.38,6,6,0,0,1,.92,1.14,7.18,7.18,0,0,1,.61,1.32,5.34,5.34,0,0,0,.48,1.41c.12.19.65,0,.72-.16Z"></path><path class="cls-22" d="M208,169.11a.82.82,0,0,0-.57-.81,1.47,1.47,0,0,0-.88,0,1.78,1.78,0,0,0-.79.42.12.12,0,0,0,0,.12h0v-.05s0,.09-.05.14a.43.43,0,0,0,0,.11.2.2,0,0,0,.1.08.45.45,0,0,0,.42-.05l.17-.1a.74.74,0,0,0,.13-.12s0,0,0,0l.05,0c.1-.08-.25.11-.05,0a.81.81,0,0,0,.18-.1l0,0s.06,0,0,0l.05,0s-.14.06-.05,0-.13,0-.07,0,.09,0-.07,0h.05c-.12,0-.07,0,0,0h0l.1,0,.05,0c-.06,0,0,0,0,0a1.07,1.07,0,0,1,.34.33l0-.05a1,1,0,0,1,.11.23c0,.06.1.07.15.08a.77.77,0,0,0,.3,0c.13,0,.36-.11.37-.27Z"></path><path class="cls-22" d="M225.41,169.15a1.55,1.55,0,0,0,0,.21l0-.06a.13.13,0,0,0,0,.12.31.31,0,0,1,0,.08.77.77,0,0,0,.07.16.89.89,0,0,0,.23.28,1.15,1.15,0,0,0,.29.2.66.66,0,0,0,.19.09l.13,0a.76.76,0,0,0,.26,0l-.13,0a.78.78,0,0,0,.22,0s.2,0,.18-.1,0,0-.06-.08v0s0-.05,0-.06a.42.42,0,0,0-.14-.09l-.07,0s0,0,0,0l0,0a1.18,1.18,0,0,1-.25-.19c-.08-.07-.14-.15-.22-.23l-.11-.12c0-.06-.06-.12-.13-.14l0,0a1.11,1.11,0,0,1-.09-.19c0-.07-.18,0-.23,0s-.19,0-.19.13Z"></path><path class="cls-35" d="M178.91,214.36c.15,5.45.72,10.88,1.38,16.29q.79,6.61,1.74,13.22c.09.61.15,1.23.3,1.83a2.19,2.19,0,0,0,.17.55s0,.08.05.11l0,.07a.28.28,0,0,0,.1.09s-.17-.28-.15-.19c.06.31.61.33.66,0a.67.67,0,0,0,0-.2c-.07-.43-.72-.25-.66.18a.48.48,0,0,1,0-.17h.66l-.09.33a1.24,1.24,0,0,0,.13-.81c0-.54-.12-1.06-.2-1.59-.25-1.74-.49-3.48-.73-5.22q-1-7.77-1.91-15.55c-.33-3-.66-6-1-8.94,0-.34-.55-.35-.54,0Z"></path><path class="cls-35" d="M191,244.93c-.38.07-.76.08-1.15.16a8.61,8.61,0,0,0-1.37.49c-1.15.45-2.29.94-3.42,1.45-2.36,1-4.72,2.16-7,3.37a19.73,19.73,0,0,0-2.59,1.62.24.24,0,0,0,.18.43,33.25,33.25,0,0,0,5.82-2.42c2.34-1.13,4.68-2.23,7-3.33.52-.24,1-.46,1.55-.72s.73-.49,1.12-.67c.23-.11.06-.42-.16-.38Z"></path><path class="cls-35" d="M238.12,274.33a6.84,6.84,0,0,0-.4,2c-.1.65-.22,1.29-.37,1.93a23.6,23.6,0,0,1-1.34,4,23.17,23.17,0,0,1-2,3.58c-.4.58-.81,1.15-1.26,1.7s-.94,1-1.32,1.57a.34.34,0,0,0,.45.46,7.76,7.76,0,0,0,1.52-1.51c.46-.54.91-1.11,1.32-1.7a23.44,23.44,0,0,0,2.07-3.73,21.73,21.73,0,0,0,1.33-4,20.48,20.48,0,0,0,.37-2.05,5,5,0,0,0,0-2.18c-.06-.15-.29-.22-.37-.05Z"></path><path class="cls-35" d="M122.09,250.72c-.14-.52-.22-1-.36-1.57s-.28-1.09-.39-1.65a18.54,18.54,0,0,1-.11-6.58c.18-1.08.55-2.16.62-3.25,0-.34-.43-.4-.59-.16a7.87,7.87,0,0,0-1,3.32,19.33,19.33,0,0,0,.17,6.84,9.62,9.62,0,0,0,1.19,3.26.27.27,0,0,0,.5-.21Z"></path><path class="cls-35" d="M128.06,253.62a23.52,23.52,0,0,1-1.84-6.07c0-.37-.15-1,.1-1.31s.82,0,1.05.27a3,3,0,0,1,.65,1.26,7.18,7.18,0,0,1,.15,1.54.25.25,0,0,0,.48.06,3.6,3.6,0,0,0-.77-3.36c-.68-.78-2-1-2.37.24a4.68,4.68,0,0,0,0,1.75,11.23,11.23,0,0,0,.49,2c.44,1.31,1,2.55,1.59,3.81.11.25.55.07.45-.19Z"></path><path class="cls-35" d="M140.76,261.49c-.35-.56-.63-1.15-.95-1.73a13.83,13.83,0,0,1-.78-1.71,18.18,18.18,0,0,1-.56-1.77c-.08-.32-.15-.64-.23-1s-.19-.63-.27-.94-.32-.14-.33,0a8,8,0,0,0,0,1,8.33,8.33,0,0,0,.16,1,12.12,12.12,0,0,0,.61,1.94,13.39,13.39,0,0,0,.81,1.76,9.84,9.84,0,0,0,1.22,1.64c.15.18.44-.05.32-.25Z"></path><path class="cls-35" d="M152.1,266a5.37,5.37,0,0,0,1.64-.32,5.58,5.58,0,0,0,1.45-.85,5.64,5.64,0,0,0,1.2-1.19,6.33,6.33,0,0,0,.44-.7c.06-.12.12-.24.17-.36a1.7,1.7,0,0,0,.08-.45c0-.22-.25-.48-.43-.26s-.18.18-.26.28a3.7,3.7,0,0,0-.21.33,4.83,4.83,0,0,1-.43.58,6.15,6.15,0,0,1-2.34,1.85,7.57,7.57,0,0,1-1.38.57.27.27,0,0,0,.07.52Z"></path><path class="cls-35" d="M152.17,263.79a4.75,4.75,0,0,0,1.08-.48,5.84,5.84,0,0,0,.92-.72,4.93,4.93,0,0,0,.74-.9,3.25,3.25,0,0,0,.28-.52,1,1,0,0,0,.12-.6.24.24,0,0,0-.36-.15,1.82,1.82,0,0,0-.37.45l-.28.41a6.84,6.84,0,0,1-.67.77,6,6,0,0,1-1.71,1.14c-.34.15-.1.71.25.6Z"></path><path class="cls-22" d="M225,186.05l.05,0h0l.06,0,.11,0h0l.05,0h.27s0,0,0,0h0l.1,0,.21.08,0,0s0,0,0,0l.1.06a.81.81,0,0,0,.27.11,1.31,1.31,0,0,0,.27.06.32.32,0,0,0,.29-.13.42.42,0,0,0,0-.19.14.14,0,0,0,0-.11.31.31,0,0,0-.09-.07,1.56,1.56,0,0,0-.89-.27,1.68,1.68,0,0,0-1.24.39c-.06.05,0,.1.06.12a.58.58,0,0,0,.32,0Z"></path><rect class="cls-36" x="277.64" y="343.48" width="114.34" height="4.01" rx="1.94"></rect><path class="cls-36" d="M411.61,294.27l-69-.7-9.79-.1a1.56,1.56,0,0,0-1.37.79Q322,316.13,312.54,338l-2.7,6.24a1.72,1.72,0,0,0-.07.21h0a1.94,1.94,0,0,0,0,.2,1.56,1.56,0,0,0,1.28,2,1.4,1.4,0,0,0,.73,0l70.87.55,10.12.08a1.65,1.65,0,0,0,1.54-1.17q9.44-24.92,18.89-49.82A1.61,1.61,0,0,0,411.61,294.27Z"></path><path class="cls-36" d="M411.61,292.63,353.4,292,339,291.89l-3.43,0a14.65,14.65,0,0,0-3.44.06c-2.26.55-2.81,3.3-3.62,5.16L317,323.51q-2.85,6.6-5.72,13.21c-1,2.24-2,4.46-2.9,6.7a3.5,3.5,0,0,0,.75,4.12c1.5,1.29,4.23.76,6.05.78l7.24.06,14.47.11,29.2.23,14.48.11,7.05.06,3.37,0a6.67,6.67,0,0,0,3.11-.32c1.77-.92,2.2-3.36,2.85-5.07l2.56-6.75,5.12-13.5,5.2-13.74,2.56-6.75,1.24-3.26a15.15,15.15,0,0,0,1.17-3.35c.22-2-1.41-3.32-3.23-3.54a1.65,1.65,0,0,0-1.64,1.64,1.68,1.68,0,0,0,1.64,1.64,9.71,9.71,0,0,0-.84,2l-1.24,3.26-2.38,6.29-4.68,12.34q-4.73,12.46-9.44,24.92c-.45,1.15-.29.89-1.51.88l-3.38,0-6.54-.06-13.22-.1-27-.21-26.7-.21h-3.14c-.4,0-.33.05-.13-.4l2.61-6,5.32-12.3,10.56-24.38,2.67-6.16c.22-.52.14-.54.5-.65a6.54,6.54,0,0,1,1.71,0l3.43,0,13.15.13,53.47.54,6.74.07A1.64,1.64,0,0,0,411.61,292.63Z"></path><ellipse class="cls-37" cx="358.69" cy="322.02" rx="5.33" ry="3.88"></ellipse><ellipse class="cls-37" cx="368.93" cy="322.41" rx="2.78" ry="2.03"></ellipse><text></text><text class="cls-14" transform="translate(110.31 88.75)"><tspan class="cls-15">L</tspan><tspan x="14.33" y="0">e</tspan><tspan class="cls-16" x="28.01" y="0">s</tspan><tspan x="40.67" y="0">son 1</tspan></text><line class="cls-38" x1="124.29" y1="101.49" x2="124.29" y2="116.56"></line><polyline class="cls-39" points="84.33 116.56 84.33 109.02 124.29 109.02"></polyline><rect class="cls-11" x="109.92" y="116.56" width="77.3" height="24.31" rx="12.15"></rect><rect class="cls-11" x="21.23" y="116.56" width="77.3" height="24.31" rx="12.15"></rect><line class="cls-40" x1="84.33" y1="140.87" x2="84.33" y2="152.11"></line><rect class="cls-13" x="31.32" y="124.44" width="57.12" height="2.5" rx="1.25"></rect><rect class="cls-13" x="31.32" y="130.49" width="57.12" height="2.5" rx="1.25"></rect><rect class="cls-13" x="120.01" y="124.44" width="57.12" height="2.5" rx="1.25"></rect><rect class="cls-13" x="120.01" y="130.49" width="57.12" height="2.5" rx="1.25"></rect><rect class="cls-13" x="31.32" y="159.99" width="57.12" height="2.5" rx="1.25"></rect><rect class="cls-13" x="31.32" y="166.04" width="57.12" height="2.5" rx="1.25"></rect><circle class="cls-36" cx="284.28" cy="157.59" r="1.55"></circle><circle class="cls-36" cx="289.19" cy="157.59" r="1.55"></circle><circle class="cls-36" cx="294.1" cy="157.59" r="1.55"></circle><circle class="cls-36" cx="122.21" cy="167.29" r="1.55"></circle><circle class="cls-36" cx="127.12" cy="167.29" r="1.55"></circle><circle class="cls-36" cx="132.03" cy="167.29" r="1.55"></circle></g></svg> 