<svg xmlns="http://www.w3.org/2000/svg"  viewBox="0 0 50 50" width="50px" height="50px"><path d="M 24.789062 2.7109375 C 24.439062 2.7109375 24.080469 2.7107031 23.730469 2.7207031 C 16.970469 2.8707031 10.489063 4.4497656 5.7890625 7.0097656 L 5.7890625 28.859375 C 5.7890625 39.269375 13.300312 42.339063 24.570312 47.289062 C 35.830312 42.339062 43.349609 39.269375 43.349609 28.859375 L 43.349609 7.0097656 C 42.319609 6.4497656 41.250625 5.94 40.140625 5.5 C 38.670625 4.91 37.149844 4.4095313 35.589844 4.0195312 C 34.419844 3.7195313 33.239063 3.4692969 32.039062 3.2792969 C 31.239062 3.1492969 30.440625 3.0509375 29.640625 2.9609375 C 28.030625 2.7909375 26.399062 2.7109375 24.789062 2.7109375 z M 24.789062 4.7109375 C 29.889063 4.7109375 34.660547 5.5408594 38.810547 7.1308594 C 36.960547 7.0108594 35.060625 6.9597656 33.140625 7.0097656 C 24.510625 7.2097656 15.409062 9.300625 7.7890625 16.140625 L 7.7890625 8.2304688 C 12.149062 6.1204688 17.899531 4.8507031 23.769531 4.7207031 C 24.109531 4.7107031 24.449063 4.7109375 24.789062 4.7109375 z M 24.859375 16.449219 C 27.749375 16.449219 30.880859 18.100078 30.880859 24.080078 C 30.880859 31.590078 26.270859 32.439766 23.880859 31.759766 L 23.880859 38.589844 L 20.640625 38.589844 L 20.640625 17.589844 C 21.470625 17.009844 23.119375 16.439219 24.859375 16.449219 z M 35.730469 16.509766 C 37.030469 16.399766 38.389922 16.759844 39.419922 17.589844 L 39.419922 20.320312 C 37.709922 18.450312 34.640625 18.620234 34.640625 20.490234 C 34.640625 23.220234 40.099688 22.710078 39.929688 27.830078 C 39.759687 31.930078 35.320234 33.290078 31.740234 31.080078 L 31.740234 28.169922 C 33.790234 29.879922 36.859453 30.050156 36.689453 27.660156 C 36.689453 24.930156 31.570313 25.440156 31.570312 20.660156 C 31.570312 18.100156 33.570469 16.669766 35.730469 16.509766 z M 9.2109375 16.740234 L 12.449219 16.740234 L 12.449219 26.980469 C 12.449219 30.050469 15.179453 29.199375 15.689453 28.859375 L 15.689453 16.740234 L 18.929688 16.740234 L 18.929688 30.740234 C 17.229688 31.930234 9.2109375 34.320547 9.2109375 26.810547 L 9.2109375 16.740234 z M 24.660156 19.060547 C 24.465156 19.075547 24.282344 19.113203 24.121094 19.158203 C 23.959844 19.203203 23.820938 19.255781 23.710938 19.300781 L 23.710938 29.199219 C 23.798437 29.199219 24.086562 29.307734 24.46875 29.361328 C 24.755391 29.401523 25.094409 29.411531 25.439453 29.324219 C 25.784497 29.236907 26.13584 29.051123 26.447266 28.701172 C 26.551074 28.584521 26.650884 28.450764 26.744141 28.294922 C 26.837397 28.13908 26.924609 27.961758 27.003906 27.761719 C 27.083203 27.56168 27.154868 27.337131 27.216797 27.087891 C 27.278726 26.83865 27.329941 26.565166 27.371094 26.261719 C 27.453398 25.654824 27.491953 24.933828 27.470703 24.080078 C 27.470703 23.520078 27.445312 23.020273 27.398438 22.574219 C 27.351562 22.128164 27.282891 21.734844 27.197266 21.390625 C 27.111641 21.046406 27.008828 20.750586 26.892578 20.496094 C 26.776328 20.241602 26.646562 20.028437 26.507812 19.851562 C 26.369063 19.674688 26.221484 19.535195 26.068359 19.423828 C 25.915234 19.312461 25.757031 19.229844 25.597656 19.171875 C 25.438281 19.113906 25.276641 19.07918 25.119141 19.0625 C 24.961641 19.04582 24.807656 19.048047 24.660156 19.060547 z"/></svg>